<svg width="16" height="16" viewBox="0 0 16 16" fill="none" xmlns="http://www.w3.org/2000/svg">
<path d="M14.1545 15.9469H14.0499C1.96206 15.2948 0.245771 5.72641 0.00585927 2.80627C-0.0134719 2.57923 0.0151412 2.35084 0.090059 2.13418C0.164977 1.91753 0.284727 1.71688 0.442448 1.54372C0.600169 1.37056 0.792761 1.22829 1.00919 1.12508C1.22562 1.02187 1.46163 0.959729 1.7037 0.942231H5.09322C5.33962 0.942007 5.58042 1.0112 5.78443 1.14085C5.98843 1.27049 6.14624 1.45462 6.23741 1.66938L7.17245 3.82774C7.26248 4.03755 7.28482 4.26754 7.2367 4.48915C7.18858 4.71077 7.07212 4.91424 6.90178 5.07428L5.5915 6.31505C5.79617 7.40621 6.35317 8.41205 7.18715 9.1965C8.02113 9.98095 9.09183 10.5061 10.2544 10.701L11.5893 9.46026C11.7625 9.30223 11.9814 9.19552 12.2188 9.15344C12.4562 9.11136 12.7015 9.13578 12.9242 9.22365L15.2433 10.0951C15.4688 10.1833 15.6612 10.3325 15.7959 10.5237C15.9307 10.7148 16.0017 10.9393 16 11.1685V14.2156C16 14.6748 15.8055 15.1151 15.4594 15.4398C15.1133 15.7645 14.6439 15.9469 14.1545 15.9469ZM1.85133 2.09644C1.68818 2.09644 1.53172 2.15724 1.41635 2.26547C1.30099 2.37369 1.23618 2.52048 1.23618 2.67354V2.71971C1.51915 6.13615 3.33386 14.2156 14.1176 14.7927C14.1984 14.7974 14.2794 14.787 14.356 14.7623C14.4325 14.7375 14.5031 14.6989 14.5637 14.6485C14.6243 14.5981 14.6736 14.5369 14.709 14.4686C14.7443 14.4003 14.7649 14.326 14.7697 14.2502V11.1685L12.4505 10.2971L10.685 11.9418L10.3897 11.9072C5.03785 11.2781 4.31197 6.25734 4.31197 6.2054L4.27506 5.9284L6.02211 4.27211L5.09937 2.09644H1.85133Z" fill="black"/>
</svg>
