<svg width="60" height="31" viewBox="0 0 60 31" fill="none" xmlns="http://www.w3.org/2000/svg">
<path d="M59.6337 14.9608L40.8838 0.898276C40.3954 0.532036 39.6044 0.532036 39.1162 0.898276C38.6279 1.26452 38.6279 1.85778 39.1162 2.22393L55.7325 14.6861H1.25004C0.559101 14.6861 0 15.1054 0 15.6237C0 16.1419 0.559101 16.5612 1.25004 16.5612H55.7325L39.1162 29.0233C38.6279 29.3895 38.6279 29.9828 39.1162 30.3489C39.3603 30.532 39.6802 30.6236 40.0001 30.6236C40.3199 30.6236 40.6397 30.532 40.8839 30.3489L59.6339 16.2864C60.1221 15.9203 60.1221 15.327 59.6337 14.9608Z" fill="#272727"/>
</svg>
